<svg width="500" height="505" viewBox="0 0 500 505" fill="none" xmlns="http://www.w3.org/2000/svg">
<path fill-rule="evenodd" clip-rule="evenodd" d="M35.3029 357.379L250.059 250L464.716 357.342C480.895 325.042 490 288.584 490 250C490 117.452 382.548 10 250 10C117.452 10 10 117.452 10 250C10 288.599 19.1122 325.07 35.3029 357.379Z" fill="#EBEDF5"/>
<path d="M490 250C490 117.452 382.548 10 250 10C117.452 10 10 117.452 10 250" stroke="url(#paint0_linear_86_0)" stroke-width="20" stroke-linecap="round"/>
<path fill-rule="evenodd" clip-rule="evenodd" d="M248.668 38C247.461 38 246.375 38.7362 245.928 39.8581L169 233H170.81C169.624 238.479 169 244.166 169 250C169 294.183 204.817 330 249 330C293.183 330 329 294.183 329 250C329 244.166 328.376 238.479 327.19 233H328.356L323.771 221.49C323.494 220.764 323.206 220.043 322.909 219.327L251.408 39.8579C250.961 38.7361 249.876 38 248.668 38Z" fill="#1E1E28"/>
<g opacity="0.0414109" filter="url(#filter0_f_86_0)">
<path fill-rule="evenodd" clip-rule="evenodd" d="M250 450C338.366 450 410 378.366 410 290C410 201.634 338.366 130 250 130C161.634 130 90 201.634 90 290C90 378.366 161.634 450 250 450Z" fill="black"/>
</g>
<path fill-rule="evenodd" clip-rule="evenodd" d="M250 410C338.366 410 410 338.366 410 250C410 161.634 338.366 90 250 90C161.634 90 90 161.634 90 250C90 338.366 161.634 410 250 410Z" fill="white"/>
<path d="M389 250C389 326.768 326.768 389 250 389C173.232 389 111 326.768 111 250C111 173.232 173.232 111 250 111C326.768 111 389 173.232 389 250Z" stroke="#EBEDF5" stroke-width="2"/>
<g clip-path="url(#clip0_86_0)">
<path d="M199.992 268.704C196.024 268.704 192.653 267.808 189.88 266.016C187.149 264.224 185.059 261.643 183.608 258.272C182.157 254.859 181.432 250.72 181.432 245.856C181.432 242.144 181.901 238.816 182.84 235.872C183.779 232.928 185.144 230.453 186.936 228.448C188.728 226.4 190.904 224.843 193.464 223.776C196.024 222.709 198.925 222.176 202.168 222.176C203.917 222.176 205.688 222.389 207.48 222.816C209.272 223.243 210.979 223.883 212.6 224.736C213.624 225.248 214.328 225.952 214.712 226.848C215.096 227.701 215.224 228.619 215.096 229.6C215.011 230.539 214.691 231.392 214.136 232.16C213.581 232.885 212.835 233.397 211.896 233.696C211 233.995 209.976 233.888 208.824 233.376C207.544 232.779 206.349 232.373 205.24 232.16C204.131 231.947 203.064 231.84 202.04 231.84C199.907 231.84 198.136 232.288 196.728 233.184C195.32 234.037 194.253 235.36 193.528 237.152C192.803 238.901 192.44 241.099 192.44 243.744V247.072H191.48C191.864 245.237 192.568 243.68 193.592 242.4C194.616 241.077 195.875 240.075 197.368 239.392C198.904 238.709 200.611 238.368 202.488 238.368C205.005 238.368 207.245 239.008 209.208 240.288C211.171 241.525 212.728 243.253 213.88 245.472C215.032 247.691 215.608 250.208 215.608 253.024C215.608 256.096 214.947 258.805 213.624 261.152C212.301 263.499 210.467 265.355 208.12 266.72C205.773 268.043 203.064 268.704 199.992 268.704ZM199.352 259.744C200.461 259.744 201.421 259.488 202.232 258.976C203.085 258.464 203.725 257.739 204.152 256.8C204.621 255.861 204.856 254.773 204.856 253.536C204.856 252.256 204.621 251.168 204.152 250.272C203.725 249.333 203.085 248.608 202.232 248.096C201.421 247.541 200.461 247.264 199.352 247.264C198.285 247.264 197.325 247.541 196.472 248.096C195.661 248.608 195.021 249.333 194.552 250.272C194.083 251.168 193.848 252.256 193.848 253.536C193.848 254.773 194.083 255.861 194.552 256.8C195.021 257.739 195.661 258.464 196.472 258.976C197.325 259.488 198.285 259.744 199.352 259.744ZM236.575 268.704C231.028 268.704 226.762 266.677 223.775 262.624C220.831 258.528 219.359 252.747 219.359 245.28C219.359 240.245 220.02 236.021 221.343 232.608C222.666 229.152 224.607 226.549 227.167 224.8C229.727 223.051 232.863 222.176 236.575 222.176C242.164 222.176 246.431 224.139 249.375 228.064C252.319 231.989 253.791 237.707 253.791 245.216C253.791 250.208 253.13 254.453 251.807 257.952C250.484 261.451 248.543 264.117 245.983 265.952C243.423 267.787 240.287 268.704 236.575 268.704ZM236.575 259.36C238.623 259.36 240.138 258.251 241.119 256.032C242.143 253.771 242.655 250.165 242.655 245.216C242.655 240.309 242.143 236.811 241.119 234.72C240.138 232.587 238.623 231.52 236.575 231.52C234.527 231.52 232.991 232.587 231.967 234.72C230.986 236.811 230.495 240.309 230.495 245.216C230.495 250.165 230.986 253.771 231.967 256.032C232.991 258.251 234.527 259.36 236.575 259.36ZM278.982 266.848C278.427 267.829 277.723 268.469 276.87 268.768C276.017 269.109 275.185 269.173 274.374 268.96C273.563 268.747 272.859 268.341 272.262 267.744C271.665 267.147 271.302 266.4 271.174 265.504C271.046 264.608 271.259 263.669 271.814 262.688L294.214 224.096C294.811 223.072 295.515 222.411 296.326 222.112C297.137 221.771 297.947 221.707 298.758 221.92C299.611 222.133 300.315 222.56 300.87 223.2C301.467 223.797 301.83 224.544 301.958 225.44C302.129 226.293 301.915 227.211 301.318 228.192L278.982 266.848ZM269.702 249.76C265.862 249.76 262.875 248.501 260.742 245.984C258.651 243.424 257.606 240.053 257.606 235.872C257.606 233.056 258.097 230.624 259.078 228.576C260.059 226.528 261.446 224.949 263.238 223.84C265.03 222.731 267.185 222.176 269.702 222.176C273.499 222.176 276.443 223.435 278.534 225.952C280.667 228.427 281.734 231.733 281.734 235.872C281.734 238.645 281.243 241.077 280.262 243.168C279.323 245.259 277.958 246.88 276.166 248.032C274.374 249.184 272.219 249.76 269.702 249.76ZM269.702 242.72C270.342 242.72 270.875 242.507 271.302 242.08C271.771 241.611 272.113 240.885 272.326 239.904C272.582 238.88 272.71 237.536 272.71 235.872C272.71 233.355 272.433 231.605 271.878 230.624C271.366 229.643 270.641 229.152 269.702 229.152C269.019 229.152 268.443 229.365 267.974 229.792C267.547 230.176 267.206 230.859 266.95 231.84C266.737 232.821 266.63 234.165 266.63 235.872C266.63 238.432 266.886 240.224 267.398 241.248C267.91 242.229 268.678 242.72 269.702 242.72ZM303.494 268.704C299.697 268.704 296.731 267.445 294.598 264.928C292.507 262.411 291.462 259.061 291.462 254.88C291.462 252.021 291.931 249.568 292.87 247.52C293.851 245.472 295.238 243.893 297.03 242.784C298.865 241.675 301.019 241.12 303.494 241.12C307.291 241.12 310.257 242.379 312.39 244.896C314.523 247.413 315.59 250.741 315.59 254.88C315.59 257.653 315.099 260.085 314.118 262.176C313.179 264.224 311.814 265.824 310.022 266.976C308.23 268.128 306.054 268.704 303.494 268.704ZM303.494 261.728C304.177 261.728 304.731 261.515 305.158 261.088C305.627 260.619 305.969 259.893 306.182 258.912C306.438 257.888 306.566 256.544 306.566 254.88C306.566 252.363 306.289 250.613 305.734 249.632C305.222 248.651 304.475 248.16 303.494 248.16C302.854 248.16 302.299 248.373 301.83 248.8C301.403 249.184 301.062 249.867 300.806 250.848C300.593 251.787 300.486 253.131 300.486 254.88C300.486 257.44 300.742 259.232 301.254 260.256C301.766 261.237 302.513 261.728 303.494 261.728Z" fill="#1E1E28"/>
</g>
<defs>
<filter id="filter0_f_86_0" x="35.6344" y="75.6344" width="428.731" height="428.731" filterUnits="userSpaceOnUse" color-interpolation-filters="sRGB">
<feFlood flood-opacity="0" result="BackgroundImageFix"/>
<feBlend mode="normal" in="SourceGraphic" in2="BackgroundImageFix" result="shape"/>
<feGaussianBlur stdDeviation="27.1828" result="effect1_foregroundBlur_86_0"/>
</filter>
<linearGradient id="paint0_linear_86_0" x1="490" y1="10" x2="10" y2="10" gradientUnits="userSpaceOnUse">
<stop stop-color="#44B77B"/>
<stop offset="0.479043" stop-color="#FFD033"/>
<stop offset="1" stop-color="#FF3B3F"/>
</linearGradient>
<clipPath id="clip0_86_0">
<rect width="224" height="165" fill="white" transform="translate(143 167)"/>
</clipPath>
</defs>
</svg>
